<svg width="228" height="181" fill="none" xmlns="http://www.w3.org/2000/svg"><path fill-rule="evenodd" clip-rule="evenodd" d="M138.304 153.596c1.972 2.44 3.783 4.861 5.786 7.11 2.174 2.444 1.557 5.286-.188 7.183-1.204 1.309-2.375 2.701-3.785 3.75-1.055.784-2.555 1.638-3.702 1.461-1.65-.256-2.171-2.087-2.354-3.673-.353-3.05-.588-6.112-1.262-9.233-.852 1.944-1.55 3.977-2.588 5.815-2.402 4.26-5.766 7.137-10.943 7.461-3.588.224-6.766-.548-9.603-2.783-2.225-1.753-2.391-3.767.034-5.523 3.48-2.519 6.867-5.166 10.663-8.039-1.274.149-2.209.322-3.15.356-3.622.131-7.247.337-10.866.261-1.534-.032-2.132.606-2.788 1.801-1.713 3.122-3.222 6.454-5.457 9.166-3.9 4.733-8.894 8.02-15.213 8.565-3.195.276-5.867-1.241-8.46-2.973-3.518-2.35-6.326-5.246-7.239-9.49-.41-1.904-.237-3.936-.344-6.231-1.262.188-2.801.258-4.247.665-3.534.995-7.127 1.903-10.49 3.334-1.728.736-3.151 2.393-4.477 3.85-2.838 3.12-5.739 6.224-8.203 9.634-2.068 2.86-4.705 4.433-7.991 4.826-3.415.409-6.747-.33-9.838-1.907-8.277-4.224-13.818-10.948-17.29-19.46-3.274-8.026-4.701-16.423-4.217-25.078.49-8.742 5.194-15.563 13.437-18.66 2.606-.98 5.43-1.202 8.26-.603 2.51.532 5.04 1.046 7.587 1.278 1.399.126 2.907-.168 4.267-.592 2.022-.631 3.956-1.546 5.956-2.352-2.917-6.232-1.921-12.345-.711-18.755h7.934c-5.732-3.32-9.262-7.95-10.368-14.43-.735-4.302.24-8.134 3.18-11.273 2.43-2.595 5.163-4.904 7.778-7.324 2.808-2.599 5.416-5.28 5.885-9.396.248-2.18-.408-4.115-1.554-5.762-2.184-3.14-4.613-6.11-6.98-9.117-2.843-3.609-5.752-7.126-6.629-11.885-1.213-6.585 1.05-10.399 6.435-13.034 5.493-2.688 11.436-3.143 17.448-1.781 1.444.327 2.872.727 4.483 1.138-.872-1.194-1.625-2.27-2.426-3.312C63.03 7.227 62.597 5 63.233 4.038c.858-1.3 2.504-1.812 4.396-1.472 3.846.689 6.855 2.98 9.927 5.158.646.458 1.275.94 2.22 1.639-.741-1.687-1.453-3.005-1.893-4.408-.347-1.105-.541-2.326-.475-3.477.091-1.6 1.546-1.529 2.582-1.44 3.18.274 5.758 1.894 8.054 4.031 6.432 5.987 11.456 13.046 15.702 20.948 12.732-4.303 25.497-5.83 38.556-1.084 12.853 4.67 22.965 12.442 29.379 24.835l.469-.18c1.412-4.03 2.796-8.07 4.246-12.086.932-2.581 2.319-4.9 4.471-6.651 2.703-2.2 5.792-2.016 8.907-1.246 7.777 1.923 14.648 5.718 20.557 11.027 7.125 6.403 13.227 13.698 16.911 22.739 1.491 3.659.743 7.014-1.9 9.783-3.621 3.796-7.981 6.497-12.878 8.45-6.264 2.497-12.841 3.683-19.351 5.18-.671.154-1.314.43-1.797.591.822 3.14 1.708 6.127 2.375 9.164 1.176 5.345.848 10.678-.857 15.849-1.22 3.703-2.392 7.522-4.315 10.865-1.941 3.374-4.572 6.429-7.285 9.251-3.183 3.309-6.456 6.726-10.279 9.166-4.784 3.054-10.028 5.521-15.329 7.575-5.411 2.097-11.132 3.386-16.716 5.033-.146.043-.276.142-.606.318z" fill="#000"/><path fill-rule="evenodd" clip-rule="evenodd" d="M132.794 154.362c-.231.607-.655 1.211-.662 1.821-.053 4.147-1.994 7.659-4.055 10.967-1.552 2.491-4.555 3.201-7.386 3.45-3.455.304-6.806-.131-9.664-2.436-.583-.471-1.314-.758-1.977-1.13l.394-.837 12.412-9.048-.201-.635c-1.269 0-2.54-.047-3.806.008-4.427.192-8.851.451-13.279.61-.977.035-1.406.281-1.9 1.243-1.72 3.351-3.239 6.96-5.648 9.768-4.332 5.048-10.17 7.366-17.009 4.327-5.926-2.634-10.194-6.933-11.981-13.401-.102-.37-.76-.847-1.142-.832-1.59.063-2.598-.93-3.596-1.862-3.34-3.118-6.448-6.457-8.714-10.468-3.158-5.589-5.476-11.502-6.316-17.907-.526-4.004-.885-8.031-1.282-12.051-.128-1.295.208-1.931 1.789-1.492.907.252 2.002-.169 3.012-.29.517-.062 1.034-.132 1.683-.216.53 18.588 7.501 33.64 23.459 43.858l-3.875 4.367.426.48c.856-.652 1.738-1.274 2.557-1.971.361-.307.586-.772.885-1.155 1.529-1.956 1.54-1.969-.425-3.331-6.837-4.743-11.407-11.299-14.769-18.77-2.084-4.631-3.54-9.486-4.286-14.522-.436-2.94-.727-5.903-1.027-8.861-.035-.354.194-.99.446-1.078 2.416-.845 4.864-1.599 7.692-2.505.475 3.852.997 7.469 1.353 11.102.6 6.12.69 12.322 1.738 18.36 1.266 7.281 5.56 12.711 12.182 16.129 1.601.827 3.281 1.499 5.278 2.402l-6.543 10.19c3.994-2.778 6.032-6.993 8.199-11.309-1.653-.879-3.278-1.683-4.846-2.584-6.619-3.807-10.623-9.335-11.845-17.047-.914-5.769-.405-11.515-.503-17.268-.065-3.765-.174-7.483-1.184-11.131-.095-.34-.17-.839.003-1.077 1.538-2.112.77-4.216-.177-6.154-1.134-2.322-2.645-4.456-3.871-6.736-.514-.957-.995-2.077-1.013-3.132-.115-6.7.582-13.326 2.627-19.725 1.208-3.781 2.75-7.455 3.92-11.309l-2.56 4.868c-1.486-2.081-2.807-4.176-4.372-6.067-2.154-2.6-4.78-4.678-7.923-5.983-1.055-.438-1.543-1.028-1.446-2.197.088-1.069.018-2.15.018-3.514 7.13 1.443 12.883 5.254 17.948 10.39.201-.46.607-1.023.667-1.62.066-.66.059-1.592-.334-1.994-4.422-4.525-9.78-7.366-16.04-8.239-2.265-.316-3.517-1.267-4.548-3.332-1.953-3.906-4.489-7.52-6.442-11.425-2.442-4.881-1.076-9.778 3.43-12.95 5.267-3.708 11.236-4.387 17.46-3.63 1.636.2 3.264.47 4.981.719-1.3-1.821-2.618-3.56-3.82-5.377-1.258-1.902-.942-3.756.647-4.025.895-.152 1.942-.257 2.743.062 2.192.875 4.353 1.876 6.41 3.037 1.945 1.098 3.74 2.463 5.878 3.537-.312-.554-.69-1.082-.925-1.667-.834-2.08-1.706-4.152-2.385-6.284-.359-1.126.447-1.719 1.478-1.378 1.409.465 2.84 1.022 4.075 1.828 6.79 4.425 11.3 10.86 15.304 17.727.522.897.835 2.189 2.457 1.858-.985.428-2.009.784-2.946 1.3-1.926 1.063-3.847 2.145-5.681 3.355-.817.54-1.201.293-1.777-.275a603.879 603.879 0 0 0-7.073-6.823 79.809 79.809 0 0 0-3.122-2.854c-.441-.379-.995-.625-1.498-.932l-.454.567 11.909 11.581-5.696 5.181c-6.473-5.256-13.15-9.894-20.466-13.515l-.36.55 20.058 13.852c-1.54 2.034-2.883 3.721-4.134 5.474-3.095 4.337-5.59 9.012-7.22 14.086a143.104 143.104 0 0 0-3.293 12.01c-.654 2.875-.987 5.838-1.267 8.78-.324 3.4-.722 6.832-.565 10.227.216 4.63.73 9.268 1.479 13.843.756 4.62 1.767 9.219 3.002 13.734 2.248 8.221 5.41 16.117 10.791 22.802 3.653 4.537 8.622 7.564 14.195 9.204 4.035 1.187 8.224 2.089 12.403 2.477 4.044.375 8.047-.618 11.616-2.74.581-.345.815-1.278 1.209-1.939-.802-.447-1.563-1.156-2.413-1.288-2.123-.331-4.294-.337-6.432-.586-5.439-.632-10.26-2.981-15.092-5.393-7.53-3.76-10.484-10.801-13.323-18.005-2.653-6.734-4.5-13.703-5.915-20.777a117.438 117.438 0 0 1-1.832-13.002c-.356-4.162-.564-8.382-.312-12.544.645-10.616 2.096-21.085 7.137-30.704 3.122-5.957 7.275-10.97 12.863-14.758 2.452-1.66 5.254-2.412 8.025-3.213 6.708-1.94 13.51-3.282 20.551-3.07 5.362.161 10.542 1.28 15.421 3.38 4.631 1.992 9.204 4.226 13.518 6.83 3.964 2.39 7.192 5.758 9.779 9.685 1.427 2.164 3.027 4.212 4.477 6.362 1.281 1.899 2.461 3.865 3.531 5.558-2.586-.145-5.405-.418-8.226-.437-5.327-.035-9.659 2.427-13.709 5.646-3.477 2.762-5.488 6.54-7.209 10.433-.868 1.965-1.111 4.3-1.22 6.49-.171 3.455-.23 6.915 1.064 10.289.981 2.558 2.702 4.338 4.734 6.005 5.007 4.112 10.888 6.09 17.17 5.898 7.87-.24 14.624-3.347 19.258-10.134.959-1.405 1.9-2.823 2.94-4.37 1.972 4.92 3.909 9.595 4.377 14.879.573 6.466-.958 12.373-2.996 18.361-1.99 5.846-5.707 10.377-9.918 14.611-3.281 3.3-6.326 6.961-10.527 9.126-5.206 2.682-10.496 5.233-15.887 7.514-5.044 2.135-10.375 3.429-15.785 4.355-1.318.226-1.118 1.208-.52 1.969 1.137 1.449 2.395 2.801 3.585 4.208a17.9 17.9 0 0 1 1.172 1.554c1.798 2.679 1.604 4.286-.699 6.704-1.481 1.555-2.94 3.179-5.361 2.744-.524-.094-1.259-.731-1.355-1.224-.533-2.737-.907-5.506-1.312-8.267-.041-.274.069-.571.447-.905l1.658 5.755.276.008c-.035-.691.062-1.42-.128-2.065-.865-2.937-1.811-5.849-2.726-8.767 2.951 3.72 3.728 8.347 5.243 12.793.555-.54 1.023-1.126.92-1.584-.254-1.134-.747-2.218-1.185-3.306-.847-2.106-1.722-4.201-2.586-6.302l.266-.161 5.248 7.08c.437-1.628-5.224-9.461-7.684-10.652l-.192 2.176zM83.826 81.496c-.225.387-.552.748-.66 1.166-.958 3.714-1.2 7.52-.89 11.31.237 2.901.73 5.926 2.872 8.1 1.835 1.863 3.943 3.509 6.126 4.955 1.847 1.225 3.917 2.174 5.995 2.964 1.43.543 3.031.702 4.574.859 2.211.224 4.495.675 6.646.353 6.46-.971 12.432-3.133 16.545-8.676 2.069-2.788 4.28-5.413 5.039-9.065.92-4.431.153-8.55-1.072-12.723-.885-3.014-3.038-5.209-4.739-7.7-1.87-2.74-4.235-5.017-7.126-6.524-4.591-2.393-9.762-2.475-14.592-1.67-5.637.939-10.716 3.796-14.212 8.583-1.817 2.488-3.058 5.4-4.559 8.12l.053-.052zm37.573 34.002c3.307 3.42 6.269 6.714 9.483 9.737 2.587 2.432 5.507 4.408 9.093 5.299 6.278 1.559 11.906-1.698 14.754-6.712 1.898-3.342 2.983-7.148 4.432-10.746-.915.209-1.626.768-2.362 1.293-1.398.998-2.719 2.167-4.244 2.911-1.577.769-3.324 1.306-5.056 1.612-3.058.539-6.16 1.114-9.246 1.128-2.53.011-5.111-.593-7.584-1.249-2.859-.759-5.591-1.928-7.808-4.647l3.733-.186c-2.137-1.623-4.635-.741-5.578.473-1.248 1.607-1.653 4.529-.658 5.844l1.041-4.757zM86.014 55.016c.25-.45.557-.879.74-1.355 1.2-3.123 3.26-5.535 6.235-6.982 3.052-1.483 6.387-1.468 9.708-1.296.449.023.909-.176 1.363-.272-.287-.39-.498-.893-.874-1.152-2.017-1.392-4.318-1.438-6.67-1.425-6.715.035-11.597 5.491-10.502 12.482zm-6.679-10.438c-1.97-1.108-3.934-2.098-5.78-3.272-7.073-4.498-14.587-7.834-22.949-8.998-.437-.06-.907.124-1.361.195.382.26.735.672 1.153.756 7.004 1.408 13.487 4.13 19.592 7.795 2.26 1.356 4.435 2.852 6.698 4.2.835.498 1.875 1.175 2.647-.675zm65.25-5.833c.335.214.58.465.674.417 2.312-1.184 4.734-.779 7.144-.526 2.855.3 5.655.709 7.884 2.84.377.36 1.139.314 1.724.455-.133-.61-.053-1.46-.43-1.795-3.168-2.818-6.51-5.347-11.15-4.503-2.2.4-4.214 1.211-5.846 3.112zm-25.922 129.638c.698.582 1.342-.076 1.861-.775 2.216-2.98 4.43-5.963 6.558-9.005.776-1.111 1.31-2.391 2.053-3.779-.542 0-.867-.085-.936.012-3.168 4.47-6.313 8.956-9.536 13.547zm-6.423-1.632c2.236.339 13.127-9.232 12.908-11.137l-12.908 11.137zm19.51-13.66c-.728.179-.921.171-1.018.263-.148.142-.29.341-.333.537-.891 3.985-2.676 7.578-4.712 11.075-.194.334.047.926.085 1.397.353-.263.871-.45 1.033-.801 1.31-2.835 2.596-5.684 3.795-8.569.478-1.148.716-2.397 1.15-3.902zM89.4 168.782l.647.178c1.787-3.715 3.487-7.46 3.906-11.642l-.69-.242-3.863 11.706zm-59.836 6.199l9.988-11.058-.25-.344c-.304.192-.646.343-.908.582-3.37 3.063-6.706 6.164-10.12 9.175-.367.323-1.3.394-1.75.159-2.251-1.17-4.202-2.743-5.718-4.627l13.294-11.28-.32-.415c-1.477 1.128-2.94 2.275-4.434 3.378a570.55 570.55 0 0 1-7.973 5.8c-1.068.76-2.142 1.073-2.993-.397-1.05-1.816-2.158-3.597-3.24-5.394-.654-1.086.174-1.338.903-1.786 5.269-3.243 10.512-6.528 15.76-9.806.13-.083.217-.236.509-.562l-18.196 9.48c-.415-.645-.873-1.122-1.059-1.688-.66-2.01-1.15-4.079-1.858-6.07-.48-1.349-.084-2.061 1.184-2.471a6319.427 6319.427 0 0 0 15.308-4.968c.748-.244 1.476-.554 2.179-1.054-2.072.437-4.156.827-6.214 1.322-4.111.99-8.204 2.057-12.32 3.025-.36.085-1.179-.29-1.205-.518-.354-3.097-.604-6.205-.897-9.496l13.808-.636.046-.292c-.876-.164-1.747-.431-2.629-.474-3.188-.155-6.38-.277-9.57-.319-1.102-.014-1.403-.341-1.198-1.43.397-2.109.612-4.253 1.066-6.348.091-.424.916-.997 1.386-.982 2.8.089 5.595.362 8.395.507 1.462.075 2.931.013 4.448-.306l-13.236-2.089c1.072-2.708 1.931-5.487 4.253-7.04 1.088-.728 3.03-.364 4.553-.199 2.772.298 5.518 1.131 8.28 1.152 2.532.018 5.07-.742 7.717-1.177-3.038 18.33 3.624 32.841 18.81 43.643-1.645.754-3.402 1.2-4.691 2.233-2.165 1.737-4.124 3.764-6.003 5.822-2.514 2.754-4.862 5.66-7.31 8.476-.169.195-.579.269-.87.255-2.48-.119-4.87-.589-6.925-1.783z" fill="#F15A29"/><path fill-rule="evenodd" clip-rule="evenodd" d="M45.874 87.029c4.42-2.924 7.047-1.671 10.563 1.28 3.172 2.664 5.983 5.677 8.18 9.196 1.388 2.221 2.552 4.582 3.622 7.037-7.702-5.87-16.245-8.085-25.68-6.969 2.398 1.575 5.224.17 7.397 1.126-1.357.882-3.013 1.858-4.556 2.989-1.5 1.098-3.28 1.98-3.977 3.861l.392.462c.781-.626 1.552-1.266 2.346-1.874.796-.608 1.616-1.183 2.579-1.884 1.709 4.12-.913 6.414-3.25 8.832 1.685.441 2.19-.923 3.016-1.791 1.391-1.461 2.19-3.189 2.356-5.192.084-1.014-.353-2.492.167-2.97 1.548-1.423 3.612-1.955 5.745-1.588 4.357.748 8.168 2.618 11.332 5.758.256.254.593.472.932.584 1.274.418 1.475 1.072.429 1.95-.774.648-1.653 1.292-2.595 1.596-3.979 1.287-7.975 2.536-12.015 3.61-1.753.465-3.624.611-5.448.662-3.703.103-4.907-.875-5.75-4.523-.987-4.272-.728-8.57-.347-12.578 2.125-.447 3.974-.746 5.761-1.262.615-.178 1.558-.964 1.505-1.36-.122-.924-.536-2.053-1.225-2.613-2.314-1.884-4.655-3.637-6.002-6.465-1.587-3.335-1.673-6.603-.22-9.958 2.228-5.141 6.011-9.21 9.281-13.638 1.36-1.84 2.455-3.878 3.77-5.984a17.73 17.73 0 0 1 6.352 5.283c1.696 2.272 3.036 4.816 4.458 7.283.274.476.44 1.245.253 1.716-.895 2.244-1.929 4.432-2.917 6.65-4.397-1.633-8.48-3.31-12.919-3.603l-.184.42c.309.18.6.412.93.53 3.284 1.18 6.574 2.341 9.863 3.507 1.135.403 1.3.974.69 2.098-.917 1.691-1.582 3.519-2.36 5.3-1.25-.297-2.5-.73-3.783-.868-2.627-.284-5.27-.428-7.91-.585-.465-.028-.943.165-1.417.248-1.22.213-1.4.835-.715 1.806.435.615.867 1.232 1.351 1.92zM220.732 62.97c-8.963 5.329-17.947 9.544-27.167 13.274-.799.323-1.601.655-2.363 1.056-.214.112-.291.485-.431.738.308.076.68.304.914.205 6.538-2.755 13.076-5.51 19.583-8.339 3.008-1.307 5.964-2.74 8.915-4.176.89-.434 1.297-.26 1.493.68.874 4.19-.231 7.025-4.224 9.549-4.923 3.112-10.246 5.22-15.794 6.787-3.298.93-6.672 1.605-10.031 2.302-1.574.326-3.162-1.564-2.712-3.64.637-2.938.18-5.79.031-8.685-.021-.404.395-1.003.774-1.23 4.307-2.567 8.723-4.959 12.957-7.64 4.176-2.645 8.211-5.52 12.232-8.402.995-.714 1.391-.64 1.929.392 1.243 2.38 2.568 4.715 3.894 7.129zm-36.175-.62c-2.993-2.724-5.88-5.326-8.734-7.964-.946-.875-1.891-1.779-2.661-2.802-.308-.407-.383-1.297-.151-1.758 2.371-4.718 4.768-9.426 7.325-14.043.38-.685 1.633-1.248 2.478-1.243 2.859.014 5.717.292 8.572.517.329.026.636.347 1.069.598-4.699 6.449-9.098 12.96-12.673 19.973l.587.403c.563-.829 1.105-1.673 1.692-2.484 3.256-4.495 6.519-8.984 9.789-13.47.79-1.084 1.568-2.183 2.446-3.192.284-.326.982-.657 1.302-.526 3.577 1.472 6.977 3.26 10.029 6.145l-21.07 19.847zm30.212-10.007c-3.761 2.95-7.144 5.888-10.815 8.405-4.256 2.916-8.778 5.44-13.152 8.186-.786.494-1.413 1.242-2.034 1.801-.927-1.868-2.092-4.122-3.133-6.432-.14-.31.225-1.04.563-1.346 3.444-3.12 6.893-6.238 10.419-9.264 3.397-2.916 6.891-5.719 10.332-8.584.87-.724 1.491-.303 2.07.384 1.843 2.188 3.679 4.382 5.75 6.85z" fill="#F15A29"/><path fill-rule="evenodd" clip-rule="evenodd" d="M53.556 85.053l4.228.898-.47 1.757-3.95-2.463.192-.192z" fill="#F15A29"/><path fill-rule="evenodd" clip-rule="evenodd" d="M146 128.617c-6.138 1.338-10.649-.998-15-4.37 5.834-.658 9.355-.252 15 4.37z" fill="#ED1C24"/><path fill-rule="evenodd" clip-rule="evenodd" d="M144.481 78.662c-.21-7.692 2.599-14.013 8.464-19.044 3.878-3.327 8.312-5.323 13.317-5.412 9.689-.173 16.028 5.059 20.229 13.446 2.246 4.484 2.85 9.22 1.701 13.985-.569 2.362-2.065 4.588-3.484 6.636-3.947 5.696-9.728 8.346-16.395 9.042-6.034.63-11.568-.858-16.722-4.266-3.854-2.549-6.296-5.82-7.075-10.318-.228-1.318-.035-2.71-.035-4.07zm25.73 1.716c.184-6.742-5.706-11.539-11.019-11.73-7.066-.252-12.217 5.065-12.204 11.696.014 6.726 4.591 11.642 11.556 11.673 6.76.03 11.65-4.911 11.667-11.64zM89.685 35.416c-4.907 5.986-8.147 12.82-10.157 20.245-2.055 7.594-3.178 15.305-3.264 23.214-.092 8.447.68 16.778 2.525 24.984 2.128 9.473 5.155 18.678 10.19 27.029 2.938 4.87 6.944 8.616 12.403 10.911a64.558 64.558 0 0 0 13.354 3.983c1.053.195 2.173-.001 3.252.093.404.035.781.381 1.17.586-.309.309-.602.867-.93.889-3.06.206-6.141.586-9.187.407-6.243-.365-11.845-2.942-17.21-5.929-3.991-2.221-6.587-5.83-8.597-9.905-2.944-5.966-5.29-12.161-6.932-18.6-1.758-6.892-3.6-13.78-3.898-20.957-.128-3.096-.654-6.201-.499-9.277.41-8.093 1.247-16.112 3.693-23.942 2.271-7.268 5.575-13.91 10.128-19.948 1.091-1.448 2.427-2.711 3.65-4.06l.309.277zm-27.07 123.401c-1.117.235-3.043.69-4.99 1.012-.418.07-1.054-.215-1.353-.55-2.448-2.739-4.965-5.43-7.222-8.324-4.468-5.728-7.318-12.312-9.314-19.247-1.482-5.15-1.764-10.481-1.459-15.821.085-1.492 1.52-1.398 2.556-1.618.39-.083.835.148 1.256.158 3.252.08 3.233.12 3.065 3.451-.113 2.249-.161 4.521.022 6.76.232 2.849.575 5.707 1.14 8.505 1.23 6.081 3.802 11.563 7.88 16.26 2.837 3.266 5.764 6.451 8.419 9.414z" fill="#fff"/><path fill-rule="evenodd" clip-rule="evenodd" d="M84.193 81.709c.897-1.497 1.835-2.972 2.686-4.495 3.674-6.577 9.495-10.558 16.601-11.724 6.601-1.082 13.031.215 18.079 5.59 2.893 3.08 5.614 6.206 6.94 10.244 2.421 7.374 2.047 14.232-3.335 20.523-4.501 5.261-10.037 8.072-16.733 8.644-6.473.554-12.4-.86-17.954-4.656-6.795-4.645-7.808-11.093-7.015-18.425.208-1.925.522-3.838.786-5.755l-.055.054zm34.368 11.544c.376-4.654-2.711-9.711-6.893-11.972-3.672-1.985-9.567-1.608-12.678.96-4.861 4.012-6.517 9.184-4.84 15.166 1.881 6.707 8.318 10.778 15.574 8.747 4.873-1.363 9.338-7.126 8.837-12.9zm40.005-19.127c.033-1.979 1.647-3.639 3.545-3.645 2.08-.006 4.019 1.857 3.91 3.755-.108 1.878-2.141 3.825-3.956 3.788-1.888-.038-3.532-1.87-3.499-3.898z" fill="#fff"/><path fill-rule="evenodd" clip-rule="evenodd" d="M110.59 83.196c2.145.026 3.757 1.615 3.715 3.661-.038 1.87-2.027 3.927-3.729 3.858-2.101-.086-3.763-1.925-3.718-4.116.041-2.004 1.603-3.428 3.732-3.403zm-36.864 85.561C76.24 171 77.355 171 77.355 171c2.095-3.268 6.248-9.391 8.162-12.377-1.993-.903-3.67-1.575-5.27-2.402-6.612-3.418-10.9-8.849-12.163-16.131-1.047-6.038-1.137-12.24-1.736-18.361-.356-3.634-.876-7.251-1.35-11.102-2.825.905-5.269 1.66-7.681 2.504-.252.088-.481.725-.445 1.079.3 2.958.59 5.921 1.024 8.861.745 5.037 2.2 9.892 4.28 14.524 3.357 7.471 7.92 14.028 14.747 18.771 1.962 1.363 1.951 1.375.425 3.331-.299.383-.523.848-.884 1.155-.817.697-4.395 3.888-5.25 4.54M62.13 79.984l-1.122 10.891c-2.422-1.781-2.565-1.938-1.795-4.312.735-2.27 1.694-4.466 2.554-6.694l.363.115z" fill="#fff"/></svg>